<?xml version="1.0" encoding="utf-8"?>
<!-- Generator: Adobe Illustrator 16.0.0, SVG Export Plug-In . SVG Version: 6.00 Build 0)  -->
<!DOCTYPE svg PUBLIC "-//W3C//DTD SVG 1.1//EN" "http://www.w3.org/Graphics/SVG/1.1/DTD/svg11.dtd">
<svg version="1.1" id="Layer_1" xmlns="http://www.w3.org/2000/svg" xmlns:xlink="http://www.w3.org/1999/xlink" x="0px" y="0px"
	 width="1265.527px" height="323.575px" viewBox="0 0 1265.527 323.575" enable-background="new 0 0 1265.527 323.575"
	 xml:space="preserve">
<path d="M1427.938-95.649c-8.175,8.062-17.104,13.003-28.059,14.229c-21.021,2.355-39.893-8.217-48.553-27.553
	c-9.391-20.964-5.214-46.539,10.086-61.771c17.528-17.448,45.354-18.001,63.684-1.269c0.717,0.653,1.474,1.263,2.248,1.924
	c1.419-1.441,0.824-3.021,0.828-4.419c0.055-14.16,0.173-28.322-0.047-42.479c-0.066-4.448,1.179-6.506,5.895-6.138
	c3.81,0.297,7.658,0.121,11.489,0.068c2.927-0.04,4.319,1.302,4.224,4.229c-0.032,0.998,0.021,1.999,0.021,2.998
	c0.002,41.314,0.006,82.628-0.004,123.941c0,7.18-0.024,7.181-7.269,7.209c-0.834,0.003-1.666,0-2.5,0.001
	C1429.099-84.672,1429.099-84.672,1427.938-95.649z M1428.482-132.647c-0.017-18.109-12.482-30.99-30.021-31.017
	c-17.756-0.025-30.605,13.085-30.601,31.216c0.007,17.544,13.22,31.152,30.3,31.21
	C1415.731-101.177,1428.498-114.402,1428.482-132.647z"/>
<path d="M1723.528-95.813c-6.104,6.477-13.127,11.213-21.772,13.329c-27.642,6.766-54.091-10.947-58.453-39.122
	c-2.471-15.957-0.321-30.946,9.451-44.137c16.364-22.086,48.75-24.706,68.653-5.778c0.713,0.678,1.426,1.354,2.125,2.019
	c0.377-0.323,0.795-0.507,0.813-0.723c0.795-9.996,0.793-10.082,11.06-9.975c12.016,0.126,11.18-2.047,11.19,11.184
	c0.022,25.802,0.019,51.604,0,77.406c-0.004,6.777-0.168,6.903-7.049,6.936c-0.332,0.001-0.666,0.007-0.998-0.001
	c-3.988-0.093-8.316,0.759-11.879-0.521C1722.214-86.796,1725.968-92.211,1723.528-95.813z M1724.36-132.617
	c0.008-18.822-12.485-32.079-30.188-32.026c-17.654,0.051-30.304,13.438-30.319,32.091c-0.02,18.288,13.258,32.398,30.379,32.29
	C1711.815-100.375,1724.353-113.838,1724.36-132.617z"/>
<path d="M1543.367-96.795c-6.91,7.172-13.662,11.88-21.9,14.105c-27.072,7.313-53.598-9.231-58.998-37.057
	c-3.207-16.522-1.178-32.263,9.144-46.109c16.475-22.106,48.879-24.563,68.592-5.377c0.702,0.684,1.441,1.328,2.338,2.15
	c0.336-0.636,0.707-1.021,0.732-1.431c0.623-9.708,0.614-9.709,10.254-9.709c11.385-0.001,11.385-0.001,11.385,11.363
	c0,25.986-0.104,51.976,0.09,77.962c0.035,4.788-1.45,6.697-6.262,6.274c-3.307-0.291-6.67-0.233-9.986-0.017
	c-4.211,0.275-5.764-1.619-5.409-5.628C1543.487-91.901,1543.367-93.559,1543.367-96.795z M1543.266-132.625
	c0.021-22.246-18.454-36.757-39.195-30.786c-15.511,4.465-24.526,21.139-20.714,38.299c3.854,17.33,18.146,26.975,35.61,24.024
	C1533.414-103.529,1543.252-116.296,1543.266-132.625z"/>
<path d="M2148.981-125.67c-11.334,0-22.666-0.031-33.998,0.014c-5.377,0.021-5.884,0.72-4.101,5.89
	c4.067,11.796,12.129,19.354,24.69,20.284c11.894,0.879,21.976-3.455,28.219-14.305c1.513-2.629,3.104-3.419,6.035-2.764
	c3.397,0.76,6.912,0.996,10.375,1.467c5.104,0.693,5.694,1.678,3.397,6.494c-7.334,15.373-19.973,23.987-36.34,26.733
	c-29.638,4.971-54.49-12.422-59.371-42.013c-5.017-30.405,12.024-53.057,37.563-58.873c28.367-6.461,54.316,8.17,61.662,34.69
	c1.574,5.688,1.761,11.475,1.779,17.327c0.012,3.911-1.603,5.244-5.416,5.192c-11.498-0.151-22.998-0.055-34.498-0.055
	C2148.981-125.613,2148.981-125.642,2148.981-125.67z M2137.879-142.072c7.974,0,15.949-0.079,23.923,0.037
	c3.588,0.054,4.797-0.907,3.493-4.686c-3.946-11.441-14.713-18.948-27.672-18.947c-12.813,0.001-22.944,7.313-26.877,19.1
	c-1.134,3.399-0.272,4.564,3.211,4.522C2121.931-142.141,2129.905-142.076,2137.879-142.072z"/>
<path d="M1912.653-183.221c23.967-1.412,50.613,15.554,51.031,50.88c0.352,29.643-21.304,51.696-50.877,51.373
	c-33.273-0.363-50.628-24.424-50.611-51.474C1862.212-163.079,1885.043-184.429,1912.653-183.221z M1912.931-168.823
	c-20.767-0.027-35.086,14.787-35.162,36.379c-0.077,21.416,14.543,37.261,34.64,37.237c18.177-0.021,35.431-12.16,35.479-36.986
	C1947.933-156.731,1930.448-169.721,1912.931-168.823z"/>
<path d="M2039.423-105.211c5.276-15.222,10.553-30.442,15.834-45.663c2.892-8.331,5.907-16.621,8.629-25.007
	c1.043-3.213,2.742-4.56,6.144-4.39c4.483,0.223,8.993,0.221,13.479,0.002c4.112-0.2,4.882,1.148,3.44,4.953
	c-5.651,14.938-11.094,29.957-16.604,44.948c-4.938,13.432-9.948,26.835-14.737,40.318c-1.349,3.792-3.267,5.69-7.586,5.461
	c-6.474-0.345-12.982-0.193-19.472-0.057c-3.142,0.064-4.875-1.216-5.938-4.139c-10.521-28.928-21.076-57.843-31.728-86.723
	c-1.303-3.531-0.613-4.668,3.25-4.778c18.022-0.515,17.967-0.581,23.688,16.205c6.278,18.426,12.668,36.813,19.021,55.213
	c0.422,1.224,0.953,2.407,1.434,3.61C2038.661-105.241,2039.043-105.226,2039.423-105.211z"/>
<path d="M2208.511-134.94c0-7.825-0.142-15.653,0.06-23.474c0.103-3.911-1.332-5.231-5.239-5.179
	c-9.408,0.131-9.066,1.459-9.061-9.176c0.007-7.438,0.017-7.438,7.356-7.454c1.666-0.004,3.332-0.069,4.994,0
	c2.522,0.104,3.483-1.082,3.696-3.561c0.408-4.799,1.104-9.572,1.686-14.355c0.079-0.661,0.008-1.425,0.316-1.96
	c3.615-6.248,9.523-1.886,14.277-2.943c3.051-0.678,3.978,1.634,3.978,4.322c-0.002,3.829,0.017,7.658,0.026,11.487
	c0.023,6.991,0.023,6.994,6.777,7.009c3.83,0.008,7.662,0.116,11.485-0.025c3.065-0.113,4.483,0.977,4.752,4.21
	c1.021,12.274,0.873,12.429-11.405,12.545c-13.242,0.125-11.498-2.073-11.593,11.643c-0.084,12.651-0.08,25.306,0.009,37.957
	c0.075,10.65,5.659,15.359,16.307,13.979c1.486-0.191,3-0.229,4.459-0.537c2.177-0.457,3.142,0.453,3.285,2.527
	c0.035,0.498,0.037,0.998,0.063,1.496c0.688,13.354-3.701,16.936-18.914,15.42c-17.351-1.729-26.884-12.652-27.276-31.458
	c-0.158-7.488-0.024-14.982-0.024-22.474C2208.521-134.94,2208.515-134.94,2208.511-134.94z"/>
<path d="M1807.196-183.221c21.623-0.001,39.131,11.25,45.119,28.554c2.129,6.149,1.942,6.457-4.582,7.626
	c-7.707,1.379-7.545,1.289-11.313-5.537c-5.845-10.583-14.938-16.474-27.033-16.977c-12.909-0.536-23.174,4.854-29.601,16.031
	c-8.313,14.467-8.182,29.347,0.64,43.594c7.089,11.451,18.03,16.003,31.207,14.713c11.849-1.159,20.437-7.383,25.644-18.184
	c0.822-1.703,1.002-4.521,3.508-4.311c4.093,0.343,8.513-0.063,12.113,2.236c1.83,1.169,0.387,3.484-0.234,5.073
	c-5.777,14.771-16.719,23.852-31.881,27.676c-36.09,9.104-67.332-19.65-61.771-56.663c3.55-23.621,17.123-38.665,38.923-43.235
	C1801.243-183.318,1804.563-183.113,1807.196-183.221z"/>
<path d="M1589.271-133.94c-0.006-8.325-0.116-16.653,0.048-24.977c0.064-3.447-1.16-4.623-4.636-4.672
	c-10.379-0.146-10.213-0.277-10.239-10.675c-0.012-4.443,1.343-6.17,6.036-6.062c9.763,0.229,9.766-0.011,11.026-9.929
	c0.084-0.659,0.164-1.329,0.347-1.966c0.977-3.433-0.954-8.302,2.569-10.178c3.9-2.076,8.813-0.649,13.283-0.662
	c2.754-0.009,3.113,1.983,3.119,4.146c0.01,4.162,0.287,8.348-0.047,12.482c-0.375,4.678,1.065,6.739,6.063,6.289
	c4.293-0.387,8.649-0.011,12.979-0.079c2.668-0.042,4.104,1.011,3.989,3.798c-0.012,0.332,0.025,0.665,0.025,0.998
	c-0.08,14.215,1.346,11.721-11.395,11.876c-11.594,0.141-11.596,0.029-11.594,11.61c0,12.154-0.024,24.311,0.008,36.466
	c0.035,12.03,5.802,17.084,17.559,15.463c6.475-0.895,6.475-0.895,6.495,5.83c0.035,11.561,0.035,11.561-11.497,12.69
	c-20.88,2.048-33.884-9.537-34.125-30.474C1589.205-119.286,1589.276-126.613,1589.271-133.94z"/>
<path d="M1984.177-82.363c-7.729,0.003-12.845-5.019-12.937-12.703c-0.093-7.729,5.356-13.055,13.271-12.971
	c7.248,0.076,12.674,5.376,12.815,12.521C1997.478-87.893,1991.95-82.363,1984.177-82.363z"/>
<image overflow="visible" enable-background="new    " width="1600" height="1200" xlink:href="../image_processing20201211-10062-x0jo1s.jpg"  transform="matrix(1 0 0 1 2588.5498 -293.0303)">
</image>
<path fill="#ffdb70" d="M97.124-484.826c-22.043,0.021-41.211,19.606-39.576,40.176c1.201,15.121,8.15,26.618,22.019,33.32
	c14.967,7.234,29.477,7.154,43.26-3.217c7.082-5.329,13.752-11.111,19.775-17.575c5.362-5.755,11.684-9.289,19.521-10.014
	c3.314-0.307,6.638-0.527,9.957-0.754c15.945-1.087,30.328,1.428,41.107,15.125c5.524,7.021,12.088,13.389,19.985,17.953
	c4.406,2.546,8.979,6.026,14.334,2.555c5.423-3.515,5.843-9.33,5.939-15.105c0.014-0.824-0.16-1.655-0.275-2.479
	c-2.151-15.265-8.727-28.607-18.057-40.641c-5.539-7.142-11.836-13.585-20.154-17.597c-6.371-3.073-8.885-2.167-11.918,4.097
	c-2.344,4.839-3.576,10.055-4.801,15.227c-1.373,5.788-4.955,8.736-10.572,9.861c-8.436,1.689-16.891,1.261-25.379,0.644
	c-10.17-0.738-18.801-4.871-26.854-10.971c-7.031-5.322-14.5-10.086-21.943-14.834C108.429-482.285,103.14-485.239,97.124-484.826z"
	/>
<path fill="#ffdb70" d="M268.706-316.022c-0.768-8.496-1.533-16.756-3.43-24.857c-2.937-12.542-8.84-16.444-21.656-14.349
	c-8.024,1.313-14.588,4.554-19.82,11.24c-7.387,9.439-15.557,18.273-25.854,24.778c-12.016,7.588-21.01,5.809-32.686-4.349
	c-10.048-8.74-20.232-17.348-30.74-25.521c-4.951-3.852-11.48-4.305-17.568-5.163c-15.311-2.156-30.553-1.535-45.664,1.76
	c-4.961,1.082-9.293,3.329-13.248,6.628c-8.951,7.466-17.944,14.9-27.235,21.932c-19.521,14.775-43.783,9.585-55.187-12.121
	c-10.33-19.662-8.356-44.214,8.695-60.293c6.59-6.213,14.481-9.311,23.289-10.433c5.354-0.683,10.17,0.666,14.639,3.757
	c10.693,7.399,21.062,15.266,30.943,23.671c8.086,6.875,16.955,10.813,27.446,11.771c13.648,1.245,27.214,1.22,40.849-0.424
	c11.555-1.392,18.69-9.479,26.863-16.21c7.682-6.326,14.563-13.593,23.069-18.964c8.849-5.588,17.342-4.703,25.828,0.492
	c10.687,6.542,19.094,15.626,26.699,25.325c8.418,10.735,19.475,11.73,31.498,9.959c4.239-0.625,7.061-3.353,8.219-7.744
	c1.871-7.102,3.461-14.233,3.746-21.6c0.115-2.975,0.299-5.929,1.389-8.969C277.271-393.477,277.269-324.442,268.706-316.022z"/>
<path fill="#ffdb70" d="M98.407-311.081c8.269-0.507,14.244,1.793,19.813,5.399c10.129,6.56,18.717,14.943,27.272,23.333
	c2.959,2.902,6.229,4.883,10.24,5.828c12.502,2.947,25.008,3.315,37.578,0.429c5.035-1.157,9.102-3.926,12.951-7.197
	c9.006-7.654,18.055-15.259,27.116-22.843c1.527-1.278,3.142-2.495,4.854-3.503c4.838-2.846,9.535-1.486,12.186,3.522
	c2.357,4.451,2.683,9.274,1.861,14.117c-3.764,22.237-15.488,39.887-32.533,53.975c-10.865,8.981-16.162,6.923-20.18-6.498
	c-0.572-1.913-1.031-3.858-1.541-5.791c-2.875-10.934-5-13.013-16.289-14.021c-8.795-0.785-17.627-0.606-26.353,1.202
	c-5.614,1.163-10.702,3.253-15.403,6.7c-7.648,5.606-15.707,10.65-23.441,16.146c-26.131,18.574-57.764-2.029-59.146-30.934
	c-0.713-14.93,10.061-30.696,25.447-36.604C88.317-309.921,93.958-311.323,98.407-311.081z"/>
<path fill="#ffdb70" d="M174.558-494.567c-0.07,6.828-6.101,11.455-13.97,10.721c-19.28-1.802-38.733-21.092-40.68-40.339
	c-0.695-6.889,3.529-11.402,10.111-9.807c18.25,4.425,32.645,14.445,42.229,30.844C173.771-500.552,174.571-497.638,174.558-494.567
	z"/>
<path fill="#ffdb70" d="M119.267-195.458c1.961-13.086,9.911-24.233,22.62-32.063c5.976-3.683,12.351-6.613,19.664-6.375
	c9.269,0.303,13.916,6.833,11.082,15.598c-1.19,3.683-3.082,7.012-5.588,9.951c-9.977,11.706-22.135,20.148-37.215,23.713
	C122.429-182.886,119.104-186.013,119.267-195.458z"/>
<text transform="matrix(1 0 0 1 327.5264 -310.5332)" font-family="'GilmerBold'" font-size="158.2515">acompworld</text>
<image overflow="visible" width="622" height="411" xlink:href="../image (4).png"  transform="matrix(0.6001 0 0 0.6001 -395.9971 -94.8184)">
</image>
<g>
	<path fill="#ffdb70" d="M104.323,74.748c-16.438,0.017-30.734,14.623-29.514,29.966c0.894,11.278,6.078,19.847,16.422,24.847
		c11.162,5.396,21.981,5.335,32.26-2.4c5.283-3.97,10.257-8.283,14.75-13.106c3.999-4.293,8.712-6.926,14.559-7.466
		c2.47-0.231,4.949-0.395,7.425-0.563c11.892-0.81,22.618,1.062,30.655,11.278c4.121,5.235,9.016,9.987,14.907,13.388
		c3.284,1.898,6.695,4.498,10.689,1.908c4.043-2.623,4.356-6.959,4.427-11.267c0.012-0.61-0.117-1.232-0.204-1.85
		c-1.602-11.382-6.511-21.333-13.467-30.304c-4.132-5.329-8.826-10.138-15.031-13.128c-4.752-2.29-6.626-1.614-8.889,3.056
		c-1.749,3.613-2.666,7.497-3.582,11.358c-1.024,4.316-3.692,6.515-7.884,7.353c-6.29,1.261-12.595,0.939-18.925,0.482
		c-7.586-0.552-14.022-3.632-20.028-8.184c-5.241-3.969-10.815-7.522-16.364-11.063C112.755,76.641,108.811,74.44,104.323,74.748z"
		/>
	<path fill="#ffdb70" d="M232.287,200.639c-0.572-6.341-1.144-12.489-2.556-18.531c-2.194-9.36-6.595-12.27-16.153-10.712
		c-5.984,0.985-10.878,3.398-14.781,8.386c-5.511,7.047-11.601,13.634-19.283,18.483c-8.96,5.652-15.667,4.332-24.375-3.25
		c-7.493-6.508-15.086-12.937-22.925-19.029c-3.694-2.87-8.561-3.208-13.102-3.845c-11.417-1.609-22.786-1.154-34.054,1.313
		c-3.702,0.805-6.931,2.474-9.883,4.938c-6.673,5.563-13.38,11.106-20.309,16.354c-14.557,11.021-32.654,7.149-41.158-9.042
		c-7.704-14.656-6.231-32.97,6.483-44.96c4.915-4.635,10.801-6.945,17.369-7.779c3.995-0.514,7.586,0.495,10.918,2.801
		c7.973,5.516,15.706,11.381,23.078,17.652c6.027,5.13,12.643,8.062,20.467,8.777c10.179,0.933,20.294,0.914,30.465-0.319
		c8.617-1.034,13.938-7.067,20.033-12.085c5.727-4.718,10.86-10.136,17.205-14.145c6.597-4.163,12.932-3.508,19.262,0.367
		c7.968,4.879,14.24,11.656,19.909,18.892c6.282,8.006,14.526,8.752,23.494,7.421c3.159-0.459,5.264-2.496,6.128-5.776
		c1.394-5.292,2.58-10.608,2.793-16.104c0.084-2.22,0.222-4.42,1.033-6.688C238.675,142.876,238.672,194.358,232.287,200.639z"/>
	<path fill="#ffdb70" d="M105.279,204.325c6.169-0.374,10.623,1.341,14.777,4.028c7.555,4.895,13.959,11.146,20.34,17.395
		c2.207,2.168,4.646,3.648,7.637,4.354c9.323,2.195,18.651,2.465,28.024,0.316c3.755-0.864,6.789-2.93,9.658-5.367
		c6.719-5.711,13.466-11.376,20.224-17.036c1.139-0.961,2.342-1.863,3.621-2.612c3.608-2.12,7.111-1.106,9.087,2.632
		c1.759,3.315,2.001,6.913,1.386,10.521c-2.806,16.586-11.547,29.75-24.26,40.252c-8.103,6.698-12.055,5.17-15.049-4.843
		c-0.426-1.427-0.769-2.877-1.148-4.318c-2.146-8.158-3.731-9.71-12.151-10.455c-6.559-0.587-13.143-0.457-19.651,0.898
		c-4.189,0.865-7.982,2.422-11.488,4.997c-5.703,4.18-11.716,7.937-17.483,12.039c-19.484,13.856-43.077-1.518-44.107-23.07
		c-0.534-11.138,7.502-22.894,18.978-27.299C97.756,205.19,101.964,204.148,105.279,204.325z"/>
	<path fill="#ffdb70" d="M162.074,67.486c-0.053,5.093-4.55,8.54-10.418,7.995c-14.378-1.343-28.891-15.729-30.338-30.083
		c-0.521-5.139,2.632-8.502,7.54-7.315c13.609,3.301,24.345,10.771,31.492,23.004C161.485,63.02,162.081,65.195,162.074,67.486z"/>
	<path fill="#ffdb70" d="M120.839,290.558c1.46-9.758,7.39-18.075,16.867-23.917c4.458-2.743,9.212-4.93,14.667-4.751
		c6.912,0.226,10.378,5.097,8.264,11.636c-0.886,2.743-2.296,5.223-4.167,7.413c-7.439,8.734-16.508,15.033-27.753,17.686
		C123.196,299.927,120.716,297.601,120.839,290.558z"/>
</g>
<g>
	<path fill="#ffdb70" d="M322.343,227.004c-11.423,0-20.955-4.085-28.681-12.362c-7.72-8.279-11.578-18.52-11.578-30.734
		c0-12.367,3.858-22.692,11.578-30.881c7.727-8.197,17.337-12.298,28.763-12.298c11.187,0,19.934,4.022,26.24,12.137v-9.849h21.509
		v81.627h-21.509v-10.002c-6.306,8.191-15.053,12.29-26.24,12.29L322.343,227.004z M326.047,207.779
		c6.542,0,12.059-2.271,16.549-6.848c4.49-4.573,6.698-10.324,6.698-17.337c0-6.859-2.208-12.528-6.698-17.025
		c-4.49-4.482-10.007-6.771-16.549-6.771c-6.695,0-12.21,2.207-16.544,6.695c-4.336,4.5-6.462,10.243-6.462,17.263
		c0,7.086,2.126,12.915,6.462,17.409c4.333,4.486,9.849,6.774,16.544,6.774V207.779z"/>
	<path fill="#ffdb70" d="M429.114,227.167c-12.53,0-22.85-4.176-31.042-12.454c-8.199-8.264-12.295-18.591-12.295-30.883
		c0-12.29,4.096-22.533,12.295-30.729c8.192-8.192,18.512-12.293,30.884-12.293c10.478,0,19.304,2.761,26.472,8.274
		c7.173,5.518,11.666,11.662,13.477,18.518l-19.857,5.67c-0.944-3.705-3.231-6.849-6.854-9.533
		c-3.625-2.677-7.958-4.019-13.081-4.019c-6.539,0-11.901,2.369-15.994,7.015c-4.098,4.645-6.145,10.324-6.145,17.022
		c0,6.537,2.046,12.205,6.221,17.016c4.178,4.808,9.538,7.168,16.077,7.168c5.04,0,9.373-1.255,13.077-3.863
		c3.705-2.595,5.99-5.665,6.935-9.22l19.855,5.519c-1.811,7.017-6.223,13.156-13.313,18.518c-7.094,5.367-15.838,8.039-26.321,8.039
		L429.114,227.167z"/>
	<path fill="#ffdb70" d="M523.193,226.932c-12.604,0-23.008-4.099-31.282-12.367c-8.273-8.278-12.367-18.517-12.367-30.809
		c0-12.29,4.175-22.541,12.446-30.73c8.278-8.197,18.676-12.298,31.282-12.298c12.609,0,23.009,4.101,31.283,12.298
		c8.273,8.189,12.369,18.44,12.369,30.73c0,12.292-4.096,22.53-12.369,30.809c-8.273,8.269-18.673,12.367-31.203,12.367H523.193z
		 M539.74,200.857c4.257-4.499,6.383-10.166,6.383-17.027c0-6.858-2.126-12.525-6.383-17.014c-4.254-4.493-9.767-6.699-16.547-6.699
		c-6.774,0-12.292,2.206-16.548,6.699c-4.252,4.489-6.381,10.166-6.381,17.014c0,6.861,2.129,12.528,6.381,17.027
		c4.256,4.487,9.774,6.688,16.548,6.688C529.973,207.545,535.486,205.345,539.74,200.857z"/>
	<path fill="#ffdb70" d="M680.548,140.651c9.845,0,17.729,3.073,23.558,9.296c5.831,6.228,8.749,14.892,8.749,26.08v48.545h-21.355
		v-44.048c0-13.32-5.198-20.015-15.602-20.015c-5.591,0-9.849,1.968-12.844,5.911c-2.997,3.939-4.488,9.458-4.488,16.626v41.597
		h-21.515v-44.045c0-13.311-5.119-20.011-15.287-20.011c-5.749,0-10.085,2.05-13.076,6.068c-2.994,4.015-4.492,9.694-4.492,17.027
		v40.961h-21.274v-81.627h21.274v9.692c6.145-7.958,14.265-11.975,24.272-11.975c11.108,0,19.302,4.096,24.581,12.292
		c6.459-8.197,15.681-12.292,27.579-12.292L680.548,140.651z"/>
	<path fill="#ffdb70" d="M780.62,140.728c11.425,0,20.958,4.101,28.681,12.293c7.72,8.194,11.584,18.445,11.584,30.809
		c0,12.218-3.864,22.456-11.584,30.734c-7.723,8.269-17.256,12.367-28.527,12.367c-11.107,0-19.934-4.099-26.476-12.29v43.879
		h-21.271V143.016h21.271v9.849c6.468-8.115,15.288-12.137,26.476-12.137H780.62L780.62,140.728z M776.915,208.016
		c6.698,0,12.214-2.278,16.548-6.774c4.333-4.486,6.463-10.314,6.463-17.411c0-7.008-2.13-12.764-6.463-17.261
		c-4.334-4.482-9.85-6.69-16.548-6.69c-6.538,0-12.056,2.287-16.546,6.776c-4.496,4.486-6.697,10.167-6.697,17.017
		c0,7.02,2.207,12.764,6.697,17.335c4.49,4.572,10.006,6.859,16.546,6.859V208.016z"/>
	<path fill="#ffdb70" d="M952.942,143.016l-28.285,81.627h-19.859l-16.783-51.448l-16.781,51.448h-19.937l-28.128-81.627h22.137
		l16.942,54.684l16.787-54.684h17.885l16.939,54.684l16.94-54.684H952.942z"/>
	<path fill="#ffdb70" d="M999.829,226.932c-12.61,0-23.007-4.099-31.283-12.367c-8.273-8.278-12.368-18.517-12.368-30.809
		c0-12.29,4.175-22.541,12.447-30.73c8.271-8.197,18.675-12.298,31.281-12.298c12.608,0,23.009,4.101,31.282,12.298
		c8.272,8.189,12.371,18.44,12.371,30.73c0,12.292-4.099,22.53-12.371,30.809c-8.273,8.269-18.674,12.367-31.203,12.367H999.829z
		 M1016.375,200.857c4.255-4.499,6.38-10.166,6.38-17.027c0-6.858-2.125-12.525-6.38-17.014c-4.256-4.493-9.775-6.699-16.55-6.699
		c-6.778,0-12.288,2.206-16.546,6.699c-4.257,4.489-6.384,10.166-6.384,17.014c0,6.861,2.127,12.528,6.384,17.027
		c4.258,4.487,9.768,6.688,16.546,6.688C1006.6,207.545,1012.119,205.345,1016.375,200.857z"/>
	<path fill="#ffdb70" d="M1080.828,155.15c5.356-10.556,14.339-14.969,26.948-13.24v20.017c-8.905-1.417-15.603,0.078-20.093,4.494
		c-4.49,4.41-6.779,11.978-6.779,22.691v35.531h-21.271v-81.627h21.271v12.054L1080.828,155.15z"/>
	<path fill="#ffdb70" d="M1121.724,106.849h21.275v117.794h-21.275V106.849z"/>
	<path fill="#ffdb70" d="M1247.008,106.923V224.73h-21.513v-10.018c-6.38,8.206-15.128,12.291-26.235,12.291
		c-11.428,0-20.962-4.085-28.685-12.362c-7.722-8.279-11.58-18.52-11.58-30.734c0-12.367,3.858-22.692,11.58-30.881
		c7.723-8.197,17.336-12.298,28.761-12.298c11.188,0,19.937,4.022,26.238,12.137v-46.016L1247.008,106.923z M1202.959,207.779
		c6.54,0,12.06-2.271,16.55-6.848c4.491-4.573,6.697-10.324,6.697-17.337c0-6.859-2.206-12.528-6.697-17.025
		c-4.49-4.482-10.006-6.771-16.55-6.771c-6.695,0-12.214,2.207-16.546,6.695c-4.335,4.5-6.461,10.243-6.461,17.263
		c0,7.086,2.126,12.915,6.461,17.409c4.332,4.486,9.849,6.774,16.546,6.774V207.779z"/>
</g>
</svg>
