<?xml version="1.0" encoding="UTF-8"?>
<svg version="1.1" xmlns="http://www.w3.org/2000/svg" width="250" height="250">
<path d="M0 0 C9.02817959 6.5993596 15.39096273 14.66272494 17.53930664 25.79443359 C18.29634248 31.06199083 18.18448456 36.31178599 18.1875 41.625 C18.19974609 42.73746094 18.21199219 43.84992187 18.22460938 44.99609375 C18.2596466 65.06074466 12.82693678 81.2069855 -1.43701172 95.58154297 C-2.87048381 96.99635613 -4.32348952 98.391296 -5.77734375 99.78515625 C-8.03010953 101.79530449 -8.03010953 101.79530449 -9 104 C-9.66 104 -10.32 104 -11 104 C-11 104.66 -11 105.32 -11 106 C-11.66 106 -12.32 106 -13 106 C-13.32677734 106.81404297 -13.32677734 106.81404297 -13.66015625 107.64453125 C-15.45333053 110.796963 -17.87047657 113.16763338 -20.4375 115.6875 C-20.97318604 116.21569336 -21.50887207 116.74388672 -22.06079102 117.28808594 C-41.58309311 136.29581108 -63.55105689 147.60360809 -91.125 147.4375 C-92.30964844 147.45748047 -93.49429688 147.47746094 -94.71484375 147.49804688 C-106.55183007 147.49152152 -115.20520296 144.78810636 -123.76953125 136.49609375 C-130.71971925 128.71821261 -134.63168803 120.08355865 -134.3046875 109.546875 C-133.09325851 99.42057109 -129.43550494 91.04081205 -122 84 C-111.490151 76.19870776 -101.17248006 74.83321484 -88.47265625 74.90234375 C-86.98928017 74.90446617 -86.98928017 74.90446617 -85.47593689 74.90663147 C-82.33809296 74.91219912 -79.20032213 74.9247456 -76.0625 74.9375 C-73.92643333 74.94251918 -71.79036553 74.94708136 -69.65429688 74.95117188 C-64.43617325 74.96215794 -59.21809185 74.97886364 -54 75 C-54.00888245 74.39802292 -54.01776489 73.79604584 -54.0269165 73.17582703 C-54.11596626 66.86462986 -54.17597148 60.5536135 -54.21972656 54.24194336 C-54.23974175 51.89193462 -54.26696244 49.54197504 -54.30175781 47.19213867 C-54.35072124 43.79854133 -54.37307059 40.40560704 -54.390625 37.01171875 C-54.41127014 35.97480392 -54.43191528 34.9378891 -54.45318604 33.86955261 C-54.45658729 22.60940656 -50.99089701 13.06954757 -43 5 C-40.15359763 2.66042107 -37.22915285 0.76753629 -34 -1 C-33.40960938 -1.3403125 -32.81921875 -1.680625 -32.2109375 -2.03125 C-22.75979919 -6.52782682 -8.76134914 -5.3637703 0 0 Z " fill="#FE904D" transform="translate(143,4)"/>
<path d="M0 0 C1.76537109 -0.04350586 1.76537109 -0.04350586 3.56640625 -0.08789062 C14.68270671 -0.16826432 23.54215893 2.64957784 31.75 10.3125 C39.79412849 18.87352028 42.28651428 26.72372602 42.16552734 38.36401367 C41.73251283 49.66622382 36.92094106 56.73385121 28.75 64.3125 C20.65880202 70.58281132 13.03371837 71.61978409 3.0078125 71.7265625 C1.32254959 71.75561172 1.32254959 71.75561172 -0.39675903 71.7852478 C-3.97276298 71.84485875 -7.54879943 71.89135548 -11.125 71.9375 C-13.55470126 71.97569674 -15.98438923 72.01474946 -18.4140625 72.0546875 C-24.35925667 72.15054515 -30.30453142 72.23564658 -36.25 72.3125 C-36.25879936 73.15908928 -36.25879936 73.15908928 -36.26777649 74.02278137 C-36.33215973 79.94510942 -36.41668978 85.86691641 -36.51245117 91.78881836 C-36.54552056 93.99317516 -36.57360729 96.19761297 -36.59643555 98.40209961 C-36.63031432 101.58742511 -36.6826448 104.77202004 -36.73828125 107.95703125 C-36.74467117 108.92832474 -36.7510611 109.89961823 -36.75764465 110.90034485 C-37.01095493 122.93158431 -40.0374412 132.62388305 -48.2890625 141.5078125 C-55.544983 148.45606146 -64.09523619 152.44767156 -74.25 152.3125 C-84.77690111 151.45690281 -94.08522604 147.18003887 -101.25 139.3125 C-108.78827669 128.97776583 -109.60187155 119.29381276 -109.56567383 106.84179688 C-109.5625265 104.58153433 -109.58598075 102.32260025 -109.61132812 100.0625 C-109.65983494 89.17260873 -108.59084198 79.07128969 -103.5625 69.1875 C-103.12550781 68.29804688 -102.68851562 67.40859375 -102.23828125 66.4921875 C-95.8285539 56.24166085 -87.19115129 47.88108561 -78.6887207 39.38061523 C-76.57367674 37.26119984 -74.4751837 35.12627976 -72.37695312 32.99023438 C-51.97491708 12.41698573 -29.53832283 0.23949991 0 0 Z " fill="#FE904D" transform="translate(198.25,91.6875)"/>
<path d="M0 0 C0.7432402 -0.00095673 1.48648041 -0.00191345 2.25224304 -0.00289917 C3.81619349 -0.00357577 5.38014684 -0.00175797 6.9440918 0.00244141 C9.30719492 0.00777408 11.67010601 0.00249047 14.03320312 -0.00390625 C21.75031349 -0.00695734 29.34340522 0.16369765 37.01171875 1.1328125 C37.85309432 22.42428882 34.50267325 45.40795832 20.01171875 62.1328125 C13.41205379 68.86878724 8.55581188 72.34272426 -0.98095703 72.51391602 C-14.08449186 72.48353312 -22.99930301 71.07712927 -32.7578125 61.62890625 C-39.7080005 53.85102511 -43.61996928 45.21637115 -43.29296875 34.6796875 C-42.08153976 24.55338359 -38.42378619 16.17362455 -30.98828125 9.1328125 C-21.39520197 2.01202371 -11.81992512 -0.03427424 0 0 Z " fill="#8B52FE" transform="translate(51.98828125,78.8671875)"/>
<path d="M0 0 C0.95197266 -0.02449219 1.90394531 -0.04898438 2.88476562 -0.07421875 C13.20254897 -0.11636082 21.87593522 3.31544782 29.4375 10.375 C37.48162849 18.93602028 39.97401428 26.78622602 39.85302734 38.42651367 C39.42001283 49.72872382 34.60844106 56.79635121 26.4375 64.375 C18.15662799 70.79230009 10.51271515 71.66412883 0.2578125 71.5703125 C-0.9100882 71.5674826 -2.07798889 71.56465271 -3.28128052 71.56173706 C-7.00012591 71.55056973 -10.71872777 71.52547104 -14.4375 71.5 C-16.96353818 71.48996576 -19.48958015 71.48084069 -22.015625 71.47265625 C-28.19799933 71.45064165 -34.38023226 71.41719815 -40.5625 71.375 C-40.57464155 69.64804836 -40.5832137 67.92107145 -40.59033203 66.1940918 C-40.59549835 65.23238571 -40.60066467 64.27067963 -40.60598755 63.27983093 C-40.3123739 43.66736651 -34.77989825 24.84234656 -22.5625 9.375 C-19.74471875 6.69076288 -16.8438038 4.45711245 -13.5625 2.375 C-9.17571938 -0.54952041 -5.16289349 0.00679775 0 0 Z " fill="#8B52FE" transform="translate(200.5625,91.625)"/>
<path d="M0 0 C0 0.99 0 1.98 0 3 C-1.66346741 4.52703857 -1.66346741 4.52703857 -3.95727539 6.15917969 C-8.95753658 9.88821286 -13.30021943 14.02688215 -17.68359375 18.453125 C-18.46517349 19.23516296 -19.24675323 20.01720093 -20.05201721 20.82293701 C-21.68704502 22.46096288 -23.31966538 24.10139508 -24.94995117 25.74414062 C-27.44976878 28.26235909 -29.95764131 30.77233907 -32.46679688 33.28125 C-34.06037088 34.87973488 -35.65348649 36.47867692 -37.24609375 38.078125 C-37.99499374 38.82813782 -38.74389374 39.57815063 -39.51548767 40.35089111 C-40.20703445 41.04881775 -40.89858124 41.74674438 -41.61108398 42.46582031 C-42.21903305 43.07758118 -42.82698212 43.68934204 -43.45335388 44.31964111 C-45.19582542 46.12544022 -45.19582542 46.12544022 -47 49 C-47.66 48.67 -48.32 48.34 -49 48 C-43.07501575 39.48404017 -35.66804918 32.32992285 -28.34936523 25.03369141 C-26.19429395 22.88178397 -24.05291741 20.71686765 -21.91210938 18.55078125 C-15.03828632 11.6467902 -8.39862523 5.05007092 0 0 Z " fill="#FB8A45" transform="translate(148,106)"/>
<path d="M0 0 C1.77049689 -0.05410687 3.54146849 -0.09284119 5.3125 -0.125 C6.29863281 -0.14820313 7.28476563 -0.17140625 8.30078125 -0.1953125 C11 0 11 0 14 2 C8.76528314 2.75612577 4.22745859 3.2063366 -1 2 C-0.67 1.34 -0.34 0.68 0 0 Z " fill="#FA8A45" transform="translate(119,241)"/>
<path d="M0 0 C-1.125 1.5 -1.125 1.5 -3 3 C-6.1875 3.1875 -6.1875 3.1875 -9 3 C-9 2.34 -9 1.68 -9 1 C-5.92677456 0.08941469 -3.19902639 -0.08886184 0 0 Z " fill="#EE895D" transform="translate(190,92)"/>
</svg>
