<?xml version="1.0" encoding="UTF-8" standalone="no"?>
<svg xmlns="http://www.w3.org/2000/svg" height="410.88107" width="499.99731">
  <path d="m29.98033 4.3549895h440.03656c14.09033 0 25.61809 11.609212 25.61809 25.799104v350.57282c0 14.18257-11.53501 25.7991-25.61809 25.7991h-440.03656c-14.090271 0-25.618033-11.60921-25.618033-25.7991v-350.57282c0-14.189893 11.527762-25.799104 25.618033-25.799104z" stroke="#2c3f7e" stroke-miterlimit="2.6129999" stroke-width="8.727315" fill="#fff"/>
  <path d="m495.6117 92.379311v288.34545c0 14.17658-11.53937 25.79797-25.615 25.79797h-440.03549c-14.075634 0-25.621313-11.60877-25.621313-25.79797v-288.34545h491.2718z" fill="#2c3f7e"/>
  <path d="m82.102888 192.49801 91.955342 0.2019c5.84224 0.71924 9.00941 6.33435 7.3375 11.4258l-14.12611 42.9146c-1.22397 2.23973-3.91165 3.87379-7.27441 5.24918 3.14194 3.02207 3.27443 6.60564 1.70977 10.49837-5.74129 14.87058-10.54884 27.37524-16.29013 42.24583-1.08517 3.62143-6.35959 7.87377-11.38795 7.46999l-92.283416 0.0946c-1.255514-0.83911-1.085168-3.14193 0.649839-7.1987 13.520432-41.39409 26.971463-81.8229 39.709565-112.9016m15.880041 67.79775-12.782266 36.98402c0.296529 1.13565 2.3533 1.67823 6.170314 1.63407 4.580417 1.14195 8.201849-0.7571 10.428963-7.10407l8.96525-23.67179c1.1735-6.06937-0.63722-8.38482-5.72867-8.13876l-7.053591 0.29653zm18.605581-55.05964-12.78227 36.99033c0.29653 1.13564 2.3533 1.67192 6.17032 1.62775 4.58672 1.14195 8.20184-0.75709 10.43527-7.10406l8.95894-23.67179c1.1735-6.06306-0.63722-8.38482-5.72867-8.13245l-7.05359 0.29022zm130.75639-88.05631-53.0912 73.98698h6.83277l-38.39096 121.36212 24.34688 0.0126-22.57401 72.67469 50.86407-70.90814-6.97788-0.006 18.90211-55.50759 14.61822 1.31229-15.5015 52.44767 21.89894-0.0189-23.16076 75.76616 55.50128-73.89866-7.65926-0.17665 40.39725-121.45045h-25.93676l22.39104-74.01853-1.29968 0.17665-49.72843 69.05326-2.46687 2.91481 7.52678 0.2082-17.17341 54.16375-14.86428-0.71293 16.29014-51.84831-24.30271 0.0757 23.55823-75.60842zm83.33078 75.54533 70.58637 0.20189c-0.39747 4.78862-1.65298 8.6498-3.75392 11.58354l-24.52353 0.59936-13.6403 40.13859 23.3311 0.80126c-0.17665 4.9148-1.48264 9.31856-3.56465 13.37532l-24.58662 0.11356-14.00623 38.56762 23.60871 1.85488c0.32176 4.53625-0.87066 8.88954-3.29967 13.09772l-68.49175-0.41009c-2.05046-0.23344-3.14824-1.47634-2.15771-4.95266 12.96523-39.12912 26.10711-77.99327 40.4982-114.97099m82.04372-0.0568 46.3089 1.25551-34.08814 104.69976 23.30587 0.68138c0.23343 5.31227-1.39432 9.84853-4.41638 13.79803l-70.19521-0.41009-0.39747-6.35328 39.48243-113.67131" fill="#fff"/>
  <path fill-rule="evenodd" d="m48.244458 26.1191h48.018669l2.504719-8.687651c1.078858-2.454245 3.305974-3.899033 6.681354-4.334361l18.44154 0.321764c2.90219 0.05047 4.54887 3.35014 3.88641 5.760222l-1.91797 6.940026h11.45735l-1.41955 6.201859h-11.74757l-14.70654 53.318325-11.242844-0.334383 14.738094-52.983942h-7.23656l-14.990453 52.990251-11.432115-0.21451 2.656137-9.230234h-19.211253c-3.526795 0-5.753912-3.892724-4.397453-8.473141l7.4069-25.040874c1.097786-3.70345 4.921109-4.498399 10.063038-4.605654l16.820098-0.359619 0.567821 0.0063h0.0063l1.287059-5.072528h-47.778923l1.545733-6.201859zm103.419 3.974742-6.8517 24.624473c-1.00946 3.615122-1.07255 6.826461 0.53628 9.728654l11.41949 20.561403 12.56145 0.01262-13.19236-23.097668c-0.96529-1.697152-1.29337-2.675064-0.44164-5.936876l6.97788-26.700172-0.78863 3.034684h13.16712l0.16403-0.605675-5.98735 22.018809c-0.34069 1.261823-0.7634 2.214499-2.3533 2.454245l-3.11039 0.04416-2.20188 6.264951 10.75704 0.182964c3.71607 0.06309 6.63719-2.283899 7.73497-6.378515l6.39745-23.980943h42.1575l-10.14506 36.775827-11.26177-0.05678c-2.88957-0.01893-2.0757-3.022066-1.74762-4.05676l6.90848-21.816918 4.92742 0.04416 1.98737-6.132459-26.23961-0.334383-1.77286 6.239714 8.53623 0.07571-6.4416 23.116595c-1.23028 4.422689 0.0631 9.059888 4.24603 9.11667l18.83902 0.252365 0.40378-0.593057-2.77601 10.069347 11.18606 0.365928 15.46364-54.498129-0.41009 1.432169h9.81698l1.42586-6.201859h-105.47578l-1.51418 6.201859h6.47946l0.61829-2.227117zm265.9544 55.028094 11.43843-40.258458c-0.347-0.769712-0.84542-1.634061-1.60252-1.634061h-2.95266c-1.84857 0-3.02838 0.485802-3.28074 1.545733l-4.23342 17.67183h-10.99047l3.98105-15.438403c0.28391-1.097786 1.14195-3.48894-0.70662-3.577268l-3.96844-0.201892c-1.48264-0.07571-2.10093 0.71924-2.2839 1.406933l-10.98416 40.454041-11.45736 0.151419 11.73496-42.220593c0.95898-3.457395 3.72868-5.905331 6.73182-5.905331h15.26175c2.54888 0.09464 3.51418 1.463714 3.75392 3.413231 1.43848-2.182954 3.01576-3.899033 5.14193-3.760233h4.6372c1.44479 0 2.71292 0.258674 3.30598 0.757094l2.71291-9.551999-1.23658 4.34698h-45.27421l-6.40375 23.980943c-1.09147 4.094616-4.01259 6.441606-7.72866 6.378515l-10.75704-0.182964 2.19557-6.264951 3.1167-0.04416c1.5899-0.239746 2.0063-1.192422 2.3533-2.454245l5.98735-22.018809-0.16404 0.605675h-13.17343l0.79495-3.034684-6.97788 26.700172c-0.85173 3.261812-0.52996 4.239724 0.44164 5.936876l13.19236 23.097668-12.56776-0.01262-11.41319-20.561403c-1.61513-2.902193-1.54573-6.113532-0.54258-9.728654l6.8517-24.624473-0.61829 2.227117h-7.38798l1.51419-6.201859h107.19816l-1.64668 6.201859h-7.76652l1.00946-3.608814-15.88004 56.624301-11.35641-0.21451zm-146.71214 1.659298 3.16718-9.608782c-3.71607-4.876945-2.39116-10.39742 3.86748-11.501515 6.59934-1.167186 8.27756 0.876967 8.73813 3.27443l4.11985 0.132492c0.96529 0.02524 1.6656-0.851731 2.02522-2.044153l1.17981-5.798076c0.29022-1.438478 0.43533-2.687683-0.98422-2.70661l-11.42581-0.189274c-3.47001-0.05678-4.52994-2.511027-3.8738-5.451075l2.29652-10.233383c0.71924-3.186103 3.47632-5.514166 7.17346-5.470002l12.25861 0.151419c1.77286 0.01893 1.77286-1.324914 2.11987-2.586737l0.66245-2.429009h-43.48872l1.51419-6.201859h43.67168l2.10094-7.684502c0.73186-2.656137 2.79494-5.564639 6.62457-5.533093l19.25542 0.189273c4.13878 1.369078 4.12616 4.788618 2.22711 9.381653l-11.11035 0.271292 0.9653-3.62774-5.99997-0.107255-2.01892 7.110372h21.38159l-1.41955 6.201859h-21.71597l-3.11039 10.965241-17.70338-0.233438c-1.55204-0.01893-2.70661 0.492111-2.97159 1.602515l-1.16088 4.908491c-0.33438 1.406933-0.15142 2.548882 1.07886 2.548882l12.64977-0.0063c2.61198 0 3.96213 4.359598 2.9022 8.113521l-2.69399 9.488908c-0.95268 3.362758-4.23342 6.498388-7.63403 6.397442l-10.46682-0.309146-2.88327 11.066186-11.31855-0.08202zm-163.45022-60.662134l1.67191-5.905331c0.22713-1.028386 0.42271-1.255514 1.71608-1.198732l4.9148 0.132491c0.67508 0.107255 0.70031 0.662457 0.52997 1.129332l-2.41009 8.668723 0.78233-2.826483h-7.205zm-28.182817 43.211123h-6.958953c-2.031535 0-2.876957-0.845421-2.151408-3.602504l3.615122-13.703396-1.192423-3.747614 6.687662 21.053514zm2.20819-25.463585 9.167143-0.201892-3.943197 14.264908-5.223946-14.063016z" fill="#2c3f7e"/>
</svg>